<?xml version="1.0" encoding="utf-8"?>
<!-- Generator: Adobe Illustrator 16.0.0, SVG Export Plug-In . SVG Version: 6.00 Build 0)  -->
<!DOCTYPE svg PUBLIC "-//W3C//DTD SVG 1.1//EN" "http://www.w3.org/Graphics/SVG/1.1/DTD/svg11.dtd">
<svg version="1.1" id="Layer_1" xmlns="http://www.w3.org/2000/svg" xmlns:xlink="http://www.w3.org/1999/xlink" x="0px" y="0px"
	 width="841.89px" height="595.28px" viewBox="0 0 841.89 595.28" enable-background="new 0 0 841.89 595.28" xml:space="preserve">
<g>
	<path fill-rule="evenodd" clip-rule="evenodd" fill="#FFFFFF" d="M357.956,306.175c0.493,0,0.432-0.283,0.432-0.807
		c0-0.521,0-2.018,0-2.543s-0.052-0.693,0.249-0.693c1.046,0,1.333-0.094,1.333-1.029v-9.452c0-2.574-1.819-2.149-2.333-3.089
		c-0.727-1.273,1.361-1.273,0.604-4.029c-0.192-0.623-0.683-1.011-1.625-1.011c-0.942,0-1.434,0.388-1.626,1.011
		c-0.758,2.756,1.333,2.756,0.603,4.029c-0.515,0.939-2.33,0.515-2.33,3.089v9.452c0,0.936,0.282,1.029,1.333,1.029
		c0.296,0,0.247,0.168,0.247,0.693s0,2.021,0,2.543c0,0.523-0.062,0.807,0.433,0.807
		C355.462,306.175,357.766,306.175,357.956,306.175L357.956,306.175z"/>
	<path fill-rule="evenodd" clip-rule="evenodd" fill="#FFFFFF" d="M349.68,285.665c-0.928,0.989-2.399,3.298-1.44,5.218
		c1.95,0.75,1.802-6.178,4.229-6.059c1.203,1.112-0.357,4.38-0.838,5.82c-0.602,1.771-1.079,5.489-2.221,7.288
		c-0.957,1.5-0.238,6.209-0.541,7.829c-0.808,0.809-3,0.238-3.928,0.088c0-1.857-0.242-3.326-0.541-6.295
		c-0.029-0.6-0.661-9.78-0.151-10.889c1.05-2.311,6.778-6.719,7.561-7.559c0.689-0.751,3.116-3.241,4.048-3.241
		c0.658,0.451,0.27,1.501,0.119,1.918C355.05,282.095,351.028,284.375,349.68,285.665L349.68,285.665z"/>
	<path fill-rule="evenodd" clip-rule="evenodd" fill="#FFFFFF" d="M363.656,285.665c0.898,0.989,2.369,3.298,1.439,5.218
		c-1.979,0.75-1.83-6.178-4.258-6.059c-1.17,1.112,0.387,4.38,0.869,5.82c0.599,1.771,1.079,5.489,2.219,7.288
		c0.932,1.5,0.239,6.209,0.509,7.829c0.839,0.809,3.001,0.238,3.958,0.088c0-1.857,0.212-3.326,0.51-6.295
		c0.061-0.6,0.692-9.78,0.181-10.889c-1.048-2.311-6.778-6.719-7.556-7.559c-0.722-0.751-3.12-3.241-4.051-3.241
		c-0.69,0.451-0.27,1.501-0.12,1.918C358.289,282.095,362.306,284.375,363.656,285.665L363.656,285.665z"/>
	<path fill-rule="evenodd" clip-rule="evenodd" fill="#FFFFFF" d="M341.348,282.555c-0.512,0.479-1.654,0.81-2.437,1.862
		c-0.299-0.571,0.481-1.952,1.412-2.764c0.693-0.573,2.044-1.502,2.435-1.592C343.06,280.752,341.979,281.804,341.348,282.555
		L341.348,282.555z"/>
	<path fill-rule="evenodd" clip-rule="evenodd" fill="#FFFFFF" d="M339.755,286.31c-0.873,0.813-1.802,1.144-3.007,2.616
		c-0.509-1.773-0.39-3.336-0.15-4.388c0.422-1.382,1.111-2.915,2.285-3.397c-0.239,0.782-0.633,1.864-0.723,3.337
		c-0.509,2.014-0.81,2.075-0.688,2.344c0.118,0,0.778-1.052,1.592-1.863c0.961-0.962,2.162-1.174,2.943-1.743
		C341.887,283.607,341.197,284.838,339.755,286.31L339.755,286.31z"/>
	<path fill-rule="evenodd" clip-rule="evenodd" fill="#FFFFFF" d="M335.516,294.636c-1.17-2.104-1.292-3.637-1.382-5.41
		c0.061-1.233,0.661-4.088,1.562-4.508c-0.27,2.583,0.423,2.825,0.15,4.958c0,0.12-0.3,2.344-0.3,2.464
		c0.361-0.059,0.03-2.044,4.148-4.897c-0.902,1.562-0.482,2.043-2.104,4.117C335.696,293.223,335.426,295.058,335.516,294.636
		L335.516,294.636z"/>
	<path fill-rule="evenodd" clip-rule="evenodd" fill="#FFFFFF" d="M337.171,296.619c-0.874,1.262-0.723,1.894-0.932,2.495
		c-2.076-1.203-4.419-5.98-3.549-8.354c0.541,1.802,1.293,2.193,1.834,3.695c0.932,2.256,0.783,2.947,1.383,3.457
		c-0.123-1.172,0.271-2.555,0.661-3.577c0.573-0.87,1.021-2.014,1.444-2.405C338.46,293.584,338.131,294.938,337.171,296.619
		L337.171,296.619z"/>
	<path fill-rule="evenodd" clip-rule="evenodd" fill="#FFFFFF" d="M339.034,300.706c0,1.834-0.333,2.645-0.481,3.998
		c-3.578-1.172-5.442-5.26-5.442-7.272c1.084,2.466,2.674,2.433,4.75,5.919c0.179-1.32-0.362-0.328-0.422-2.824
		c0.061-2.615,0.602-2.705,0.692-4.326C338.792,296.92,339.034,299.808,339.034,300.706L339.034,300.706z"/>
	<path fill-rule="evenodd" clip-rule="evenodd" fill="#FFFFFF" d="M342.007,305.907c0.273,1.354,0.393,2.945,0.602,4.117
		c-2.044-0.752-2.556-0.182-4.99-1.713c-1.11-0.602-3.095-3.127-2.973-4.93c2.402,2.676,2.825,2.373,3.998,3.365
		c1.079,0.871,1.95,2.166,2.734,1.986c0.057-0.723-1.773-2.287-1.534-6.793C340.324,302.45,341.646,304.493,342.007,305.907
		L342.007,305.907z"/>
	<path fill-rule="evenodd" clip-rule="evenodd" fill="#FFFFFF" d="M346.064,309.272c0.632,0.902,0.483,1.293,2.103,3.156
		c-0.391,0.182-2.703,0.779-4.236,0.842c-1.019,0-4.627-0.961-5.83-3.428c2.071,1.113,2.104,0.844,4.869,1.445
		c1.982,0.449,3.396,1.08,3.937,1.021c-0.12-0.271-1.654-0.902-2.704-2.227c-1.054-1.412-0.812-3.004-1.745-4.176
		C343.09,305.726,345.552,308.612,346.064,309.272L346.064,309.272z"/>
	<path fill-rule="evenodd" clip-rule="evenodd" fill="#FFFFFF" d="M371.819,282.555c0.482,0.479,1.655,0.81,2.405,1.862
		c0.33-0.571-0.479-1.952-1.411-2.764c-0.661-0.573-2.013-1.502-2.435-1.592C370.079,280.752,371.159,281.804,371.819,282.555
		L371.819,282.555z"/>
	<path fill-rule="evenodd" clip-rule="evenodd" fill="#FFFFFF" d="M373.413,286.31c0.841,0.813,1.773,1.144,2.976,2.616
		c0.512-1.773,0.391-3.336,0.151-4.388c-0.39-1.382-1.112-2.915-2.286-3.397c0.271,0.782,0.632,1.864,0.722,3.337
		c0.511,2.014,0.812,2.075,0.693,2.344c-0.121,0-0.783-1.052-1.593-1.863c-0.934-0.962-2.136-1.174-2.946-1.743
		C371.25,283.607,371.972,284.838,373.413,286.31L373.413,286.31z"/>
	<path fill-rule="evenodd" clip-rule="evenodd" fill="#FFFFFF" d="M377.623,294.636c1.2-2.104,1.29-3.637,1.381-5.41
		c-0.061-1.233-0.661-4.088-1.532-4.508c0.239,2.583-0.451,2.825-0.152,4.958c0,0.12,0.272,2.344,0.272,2.464
		c-0.331-0.059-0.03-2.044-4.118-4.897c0.872,1.562,0.449,2.043,2.074,4.117C377.472,293.223,377.711,295.058,377.623,294.636
		L377.623,294.636z"/>
	<path fill-rule="evenodd" clip-rule="evenodd" fill="#FFFFFF" d="M375.999,296.619c0.841,1.262,0.69,1.894,0.902,2.495
		c2.073-1.203,4.446-5.98,3.546-8.354c-0.511,1.802-1.292,2.193-1.802,3.695c-0.963,2.256-0.812,2.947-1.383,3.457
		c0.12-1.172-0.302-2.555-0.691-3.577c-0.542-0.87-1.022-2.014-1.444-2.405C374.706,293.584,375.006,294.938,375.999,296.619
		L375.999,296.619z"/>
	<path fill-rule="evenodd" clip-rule="evenodd" fill="#FFFFFF" d="M374.104,300.706c0,1.834,0.36,2.645,0.512,3.998
		c3.546-1.172,5.44-5.26,5.44-7.272c-1.114,2.466-2.675,2.433-4.777,5.919c-0.182-1.32,0.359-0.328,0.42-2.824
		c-0.061-2.615-0.602-2.705-0.693-4.326C374.346,296.92,374.104,299.808,374.104,300.706L374.104,300.706z"/>
	<path fill-rule="evenodd" clip-rule="evenodd" fill="#FFFFFF" d="M371.13,305.907c-0.271,1.354-0.36,2.945-0.571,4.117
		c2.013-0.752,2.522-0.182,4.958-1.713c1.111-0.602,3.126-3.127,3.004-4.93c-2.403,2.676-2.853,2.373-3.996,3.365
		c-1.082,0.871-1.982,2.166-2.767,1.986c-0.058-0.723,1.776-2.287,1.564-6.793C372.814,302.45,371.489,304.493,371.13,305.907
		L371.13,305.907z"/>
	<path fill-rule="evenodd" clip-rule="evenodd" fill="#FFFFFF" d="M367.072,309.272c-0.601,0.902-0.451,1.293-2.105,3.156
		c0.421,0.182,2.707,0.779,4.271,0.842c0.991,0,4.597-0.961,5.797-3.428c-2.072,1.113-2.102,0.844-4.867,1.445
		c-1.984,0.449-3.366,1.08-3.937,1.021c0.12-0.271,1.684-0.902,2.706-2.227c1.05-1.412,0.811-3.004,1.773-4.176
		C370.047,305.726,367.584,308.612,367.072,309.272L367.072,309.272z"/>
	<path fill-rule="evenodd" clip-rule="evenodd" fill="#FFFFFF" d="M351.445,317.749l-0.603-0.301c0,0,3.82-4.658,10.371-4.299
		c6.551,0.361,6.1,1.895,9.617,1.654c0.39-0.029-0.302,0.48-0.302,0.48s-3.424,1.322-7.661-0.121
		C358.658,313.722,355.921,312.849,351.445,317.749L351.445,317.749z"/>
	<path fill-rule="evenodd" clip-rule="evenodd" fill="#FFFFFF" d="M361.813,317.749l0.603-0.301c0,0-3.791-4.658-10.342-4.299
		c-6.58,0.361-6.131,1.895-9.646,1.654c-0.389-0.029,0.3,0.48,0.3,0.48s3.427,1.322,7.666-0.121
		C354.63,313.722,357.366,312.849,361.813,317.749L361.813,317.749z"/>
	<polygon fill-rule="evenodd" clip-rule="evenodd" fill="#FFFFFF" points="391.769,311.14 389.482,311.14 389.482,309.729 
		395.732,309.729 395.732,311.14 393.446,311.14 393.446,317.356 391.769,317.356 391.769,311.14 	"/>
	<path fill-rule="evenodd" clip-rule="evenodd" fill="#FFFFFF" d="M396.255,309.729h1.519v2.873h0.031
		c0.385-0.619,1.047-0.918,1.613-0.918c1.614,0,2.02,0.906,2.02,2.275v3.396h-1.517v-3.119c0-0.908-0.267-1.357-0.971-1.357
		c-0.823,0-1.175,0.459-1.175,1.582v2.895h-1.519V309.729L396.255,309.729z"/>
	<path fill-rule="evenodd" clip-rule="evenodd" fill="#FFFFFF" d="M403.605,314.964c0.043,0.961,0.514,1.4,1.357,1.4
		c0.61,0,1.1-0.375,1.196-0.717h1.336c-0.427,1.303-1.336,1.861-2.585,1.861c-1.741,0-2.821-1.197-2.821-2.908
		c0-1.656,1.145-2.916,2.821-2.916c1.881,0,2.789,1.58,2.682,3.279H403.605L403.605,314.964z M406.074,314.001
		c-0.139-0.768-0.47-1.174-1.208-1.174c-0.96,0-1.239,0.748-1.261,1.174H406.074L406.074,314.001z"/>
	<path fill-rule="evenodd" clip-rule="evenodd" fill="#FFFFFF" d="M417.325,314.472c0,2.062-1.219,3.068-3.259,3.068
		c-2.051,0-3.249-0.996-3.249-3.068v-4.742h1.678v4.742c0,0.834,0.214,1.656,1.571,1.656c1.196,0,1.581-0.523,1.581-1.656v-4.742
		h1.678V314.472L417.325,314.472z"/>
	<polygon fill-rule="evenodd" clip-rule="evenodd" fill="#FFFFFF" points="418.445,309.729 420.112,309.729 423.295,314.847 
		423.318,314.847 423.318,309.729 424.889,309.729 424.889,317.356 423.211,317.356 420.037,312.251 420.015,312.251 
		420.015,317.356 418.445,317.356 418.445,309.729 	"/>
	<path fill-rule="evenodd" clip-rule="evenodd" fill="#FFFFFF" d="M429.984,311.03h1.836c0.748,0,1.156,0.322,1.156,1.059
		c0,0.771-0.408,1.092-1.156,1.092h-1.836V311.03L429.984,311.03z M428.307,317.356h1.678v-2.98h1.678
		c0.844,0,1.152,0.354,1.27,1.154c0.086,0.609,0.064,1.346,0.268,1.826h1.678c-0.299-0.426-0.287-1.324-0.32-1.805
		c-0.053-0.77-0.289-1.57-1.111-1.783v-0.023c0.844-0.342,1.207-1.014,1.207-1.91c0-1.154-0.863-2.105-2.232-2.105h-4.113V317.356
		L428.307,317.356z"/>
	<path fill-rule="evenodd" clip-rule="evenodd" fill="#FFFFFF" d="M436.918,314.001c0.021-0.426,0.299-1.174,1.26-1.174
		c0.738,0,1.07,0.406,1.209,1.174H436.918L436.918,314.001z M440.902,314.964c0.107-1.699-0.801-3.279-2.682-3.279
		c-1.678,0-2.82,1.26-2.82,2.916c0,1.711,1.078,2.908,2.82,2.908c1.252,0,2.158-0.559,2.586-1.861h-1.334
		c-0.098,0.342-0.59,0.717-1.197,0.717c-0.844,0-1.314-0.439-1.357-1.4H440.902L440.902,314.964z"/>
	<path fill-rule="evenodd" clip-rule="evenodd" fill="#FFFFFF" d="M441.939,312.849h-0.908v-1.014h0.908v-0.43
		c0-0.971,0.609-1.676,1.848-1.676c0.268,0,0.545,0.031,0.803,0.043v1.131c-0.182-0.02-0.363-0.031-0.557-0.031
		c-0.404,0-0.576,0.172-0.576,0.631v0.332h1.047v1.014h-1.047v4.508h-1.518V312.849L441.939,312.849z"/>
	<path fill-rule="evenodd" clip-rule="evenodd" fill="#FFFFFF" d="M450.156,317.356h-1.443v-0.77h-0.033
		c-0.385,0.619-1.045,0.922-1.688,0.922c-1.613,0-2.018-0.91-2.018-2.279v-3.395h1.516v3.119c0,0.908,0.268,1.357,0.973,1.357
		c0.822,0,1.174-0.461,1.174-1.582v-2.895h1.52V317.356L450.156,317.356z"/>
	<path fill-rule="evenodd" clip-rule="evenodd" fill="#FFFFFF" d="M453.648,316.054c-0.93,0-1.229-0.867-1.229-1.656
		c0-0.822,0.373-1.57,1.229-1.57c0.984,0,1.293,0.801,1.293,1.699C454.941,315.315,454.516,316.054,453.648,316.054L453.648,316.054
		z M456.383,311.835h-1.441v0.736h-0.023c-0.359-0.641-0.916-0.887-1.643-0.887c-1.551,0-2.371,1.303-2.371,2.734
		c0,1.518,0.703,2.779,2.359,2.779c0.662,0,1.324-0.279,1.654-0.855h0.023v0.727c0.01,0.789-0.375,1.367-1.219,1.367
		c-0.533,0-0.992-0.193-1.131-0.758h-1.508c0.074,1.26,1.348,1.773,2.436,1.773c2.543,0,2.863-1.539,2.863-2.447V311.835
		L456.383,311.835z"/>
	<path fill-rule="evenodd" clip-rule="evenodd" fill="#FFFFFF" d="M458.66,314.001c0.02-0.426,0.299-1.174,1.26-1.174
		c0.738,0,1.068,0.406,1.207,1.174H458.66L458.66,314.001z M462.645,314.964c0.107-1.699-0.801-3.279-2.682-3.279
		c-1.676,0-2.82,1.26-2.82,2.916c0,1.711,1.078,2.908,2.82,2.908c1.25,0,2.158-0.559,2.584-1.861h-1.334
		c-0.096,0.342-0.588,0.717-1.195,0.717c-0.844,0-1.316-0.439-1.357-1.4H462.645L462.645,314.964z"/>
	<path fill-rule="evenodd" clip-rule="evenodd" fill="#FFFFFF" d="M464.602,314.001c0.02-0.426,0.297-1.174,1.258-1.174
		c0.738,0,1.07,0.406,1.207,1.174H464.602L464.602,314.001z M468.584,314.964c0.107-1.699-0.801-3.279-2.682-3.279
		c-1.678,0-2.82,1.26-2.82,2.916c0,1.711,1.078,2.908,2.82,2.908c1.252,0,2.158-0.559,2.586-1.861h-1.334
		c-0.098,0.342-0.59,0.717-1.197,0.717c-0.846,0-1.314-0.439-1.355-1.4H468.584L468.584,314.964z"/>
	<path fill-rule="evenodd" clip-rule="evenodd" fill="#FFFFFF" d="M474.717,311.608h0.021l0.963,2.799h-1.977L474.717,311.608
		L474.717,311.608z M470.988,317.356h1.697l0.6-1.697h2.854l0.576,1.697h1.742l-2.854-7.627h-1.719L470.988,317.356L470.988,317.356
		z"/>
	<path fill-rule="evenodd" clip-rule="evenodd" fill="#FFFFFF" d="M481.299,316.054c-0.93,0-1.229-0.867-1.229-1.656
		c0-0.822,0.373-1.57,1.229-1.57c0.982,0,1.293,0.801,1.293,1.699C482.592,315.315,482.164,316.054,481.299,316.054L481.299,316.054
		z M484.033,311.835h-1.441v0.736h-0.021c-0.363-0.641-0.92-0.887-1.645-0.887c-1.553,0-2.373,1.303-2.373,2.734
		c0,1.518,0.705,2.779,2.361,2.779c0.66,0,1.326-0.279,1.656-0.855h0.021v0.727c0.01,0.789-0.375,1.367-1.219,1.367
		c-0.533,0-0.994-0.193-1.133-0.758h-1.508c0.076,1.26,1.348,1.773,2.438,1.773c2.543,0,2.863-1.539,2.863-2.447V311.835
		L484.033,311.835z"/>
	<path fill-rule="evenodd" clip-rule="evenodd" fill="#FFFFFF" d="M486.309,314.001c0.021-0.426,0.299-1.174,1.262-1.174
		c0.736,0,1.068,0.406,1.205,1.174H486.309L486.309,314.001z M490.295,314.964c0.105-1.699-0.803-3.279-2.682-3.279
		c-1.68,0-2.82,1.26-2.82,2.916c0,1.711,1.078,2.908,2.82,2.908c1.25,0,2.158-0.559,2.584-1.861h-1.334
		c-0.098,0.342-0.59,0.717-1.197,0.717c-0.844,0-1.314-0.439-1.357-1.4H490.295L490.295,314.964z"/>
	<path fill-rule="evenodd" clip-rule="evenodd" fill="#FFFFFF" d="M490.955,311.835h1.443v0.768h0.031
		c0.385-0.619,1.049-0.918,1.689-0.918c1.611,0,2.02,0.906,2.02,2.275v3.396h-1.518v-3.119c0-0.908-0.268-1.357-0.973-1.357
		c-0.822,0-1.176,0.459-1.176,1.582v2.895h-1.518V311.835L490.955,311.835z"/>
	<path fill-rule="evenodd" clip-rule="evenodd" fill="#FFFFFF" d="M500.816,313.778c-0.094-0.621-0.49-0.951-1.119-0.951
		c-0.973,0-1.295,0.982-1.295,1.795c0,0.791,0.311,1.742,1.262,1.742c0.705,0,1.109-0.449,1.207-1.123h1.463
		c-0.191,1.463-1.207,2.268-2.66,2.268c-1.666,0-2.789-1.178-2.789-2.834c0-1.719,1.027-2.99,2.82-2.99
		c1.305,0,2.502,0.684,2.596,2.094H500.816L500.816,313.778z"/>
	<path fill-rule="evenodd" clip-rule="evenodd" fill="#FFFFFF" d="M505.723,318.052c-0.334,0.887-0.855,1.248-1.904,1.248
		c-0.309,0-0.619-0.02-0.928-0.051v-1.25c0.289,0.02,0.586,0.062,0.887,0.053c0.521-0.053,0.693-0.6,0.521-1.037l-1.943-5.18h1.625
		l1.25,3.781h0.021l1.205-3.781h1.572L505.723,318.052L505.723,318.052z"/>
	<path fill-rule="evenodd" clip-rule="evenodd" fill="#FFFFFF" d="M410.12,297.361c0,6.263-3.385,9.269-10.282,9.269
		c-6.898,0-10.315-3.006-10.315-9.269v-13.857h6.959v12.306c0,2.309,0,5.188,3.387,5.188c3.29,0,3.29-2.88,3.29-5.188v-12.306h6.96
		V297.361L410.12,297.361z"/>
	<polygon fill-rule="evenodd" clip-rule="evenodd" fill="#FFFFFF" points="414.294,283.504 421.412,283.504 427.992,295.588 
		428.055,295.588 428.055,283.504 434.635,283.504 434.635,306.091 427.867,306.091 420.938,293.754 420.875,293.754 
		420.875,306.091 414.294,306.091 414.294,283.504 	"/>
	<polygon fill-rule="evenodd" clip-rule="evenodd" fill="#FFFFFF" points="438.906,283.504 445.865,283.504 445.865,291.35 
		452.385,291.35 452.385,283.504 459.344,283.504 459.344,306.091 452.385,306.091 452.385,297.139 445.865,297.139 
		445.865,306.091 438.906,306.091 438.906,283.504 	"/>
	<path fill-rule="evenodd" clip-rule="evenodd" fill="#FFFFFF" d="M477.154,291.919c-0.129-0.824-0.76-3.321-3.639-3.321
		c-3.26,0-4.305,3.161-4.305,6.2c0,3.037,1.045,6.201,4.305,6.201c2.34,0,3.258-1.645,3.67-3.765h6.832
		c0,4.556-3.701,9.396-10.312,9.396c-7.307,0-11.453-5.158-11.453-11.832c0-7.118,4.494-11.831,11.453-11.831
		c6.199,0.03,9.619,3.289,10.219,8.952H477.154L477.154,291.919z"/>
	<path fill-rule="evenodd" clip-rule="evenodd" fill="#FFFFFF" d="M493.887,288.88h3.26c2.656,0,3.447,0.823,3.447,2.249
		c0,2.022-1.771,2.246-3.066,2.246h-3.641V288.88L493.887,288.88z M486.928,306.091h6.959v-7.876h3.703
		c2.752,0,2.939,2.246,3.133,4.4c0.094,1.17,0.219,2.34,0.568,3.477h6.961c-0.637-1.043-0.664-3.732-0.762-4.838
		c-0.252-2.818-1.422-4.906-3.322-5.632c2.311-0.855,3.387-3.322,3.387-5.663c0-4.273-3.418-6.453-7.371-6.453h-13.256V306.091
		L486.928,306.091z"/>
</g>
</svg>
